<svg xmlns="http://www.w3.org/2000/svg" width="181" height="173.929" viewBox="0 0 181 173.929"><defs><style>.a,.b,.c,.d{fill:#e8383c;}.a{font-size:16px;font-family:SegoeUI-Semibold, Segoe UI;font-weight:600;letter-spacing:0.3em;}.b{font-size:36px;font-family:SegoeUI-Bold, Segoe UI;font-weight:700;letter-spacing:0.15em;}.c{isolation:isolate;}</style></defs><g transform="translate(180.473 115.206) rotate(90)"><text class="a" transform="translate(54.722 168.244) rotate(-90)"><tspan x="0" y="0">LIFE IS LINES</tspan></text><text class="b" transform="translate(0.014 180.473) rotate(-90)"><tspan x="11.091" y="39">BECAST</tspan></text></g><g transform="translate(29.129)"><path class="c" d="M4732.82,178.658c15.063,6.855-2.426,69.16,8.869,83.083,11.753,11.873,35.73-15.385,45.289-11.538,12.381,4.514,12.992,36.223-5.171,45.652-27.179,13.778-104.6-20.626-107.816-60.7C4671.933,209.521,4709.981,168.4,4732.82,178.658Zm-3.359,19.176c-12.333-9.12-46.749,19.871-43.548,43.626,5.369,39.839,66.17,58.629,86.172,52.714,14.779-4.369,16.578-30.334,9.287-35.077-9.49-6.175-26.01,15.467-39.744,8.522C4723.819,257.771,4745.988,210.121,4729.461,197.834Z" transform="translate(-4673.91 -177.047)"/><path class="d" d="M4728.932,220.409c12.45,3.585,1.2,45.048,11.2,53.728,12.741,11.054,30.571-8.709,35.411-2.509,3.907,5.144,3.438,19.673-11.757,23.322-14.055,3.375-55.56-18.225-60.034-37.382C4696.84,239.45,4719.338,217.647,4728.932,220.409Zm2.022,23.779c-.171-13.761-20.055,1.527-17.771,15.606,2.513,15.485,35.233,35,46.707,32.387,8.455-1.925,9.215-13.736,4.245-13.761C4749.057,278.348,4731.53,290.669,4730.955,244.188Z" transform="translate(-4678.326 -181.274)"/></g></svg>