<svg xmlns="http://www.w3.org/2000/svg" width="34" height="34" viewBox="0 0 34 34">
  <g id="Group_37" data-name="Group 37" transform="translate(-80 -694)">
    <g id="Group_26" data-name="Group 26" transform="translate(80.087 695.077)">
      <circle id="Ellipse_2" data-name="Ellipse 2" cx="17" cy="17" r="17" transform="translate(-0.087 -1.077)" fill="#fed77b"/>
    </g>
    <path id="Icon_material-location-city" data-name="Icon material-location-city" d="M17.917,13.063V6.354L14.563,3,11.208,6.354V8.59H4.5V24.243H24.625V13.063ZM8.972,22.007H6.736V19.771H8.972Zm0-4.472H6.736V15.3H8.972Zm0-4.472H6.736V10.826H8.972Zm6.708,8.944H13.444V19.771h2.236Zm0-4.472H13.444V15.3h2.236Zm0-4.472H13.444V10.826h2.236Zm0-4.472H13.444V6.354h2.236Zm6.708,13.417H20.153V19.771h2.236Zm0-4.472H20.153V15.3h2.236Z" transform="translate(82.509 696.182)"/>
  </g>
</svg>
