<svg xmlns="http://www.w3.org/2000/svg" width="834.67" height="574.085" viewBox="0 0 834.67 574.085">
  <g id="Group_20" data-name="Group 20" transform="translate(0.931 0.893)" opacity="0.1">
    <g id="Group_7" data-name="Group 7" transform="translate(404.773 100.199) rotate(106)">
      <path id="Path_25" data-name="Path 25" d="M5.6,75.1C-10.14,55.765,11,48.842,23.676,45.9,36.952,42.809,43.713,33.55,46.325,23.7c9.217-34.771,28.845-29.551,37.384,4.4C101.6,99.221,30.95,103.252,5.6,75.1Z" transform="translate(78.908 108.998)" fill="none" stroke="#e8383c" stroke-miterlimit="10" stroke-width="1.5"/>
      <path id="Path_26" data-name="Path 26" d="M8.054,99.255C-13.47,73.7,13.093,65.39,30.078,61.442,47.872,57.3,58.172,43.339,61.673,30.13c12.355-46.605,35.909-35.839,47.355,9.661C133.427,136.761,39.652,134.547,8.054,99.255Z" transform="translate(63.156 87.279)" fill="none" stroke="#e8383c" stroke-miterlimit="10" stroke-width="1.5"/>
      <path id="Path_27" data-name="Path 27" d="M10.534,123.473C-16.775,91.7,15.2,82,36.5,77.053c22.314-5.188,36.15-23.861,40.542-40.423C92.536-21.811,120.016-5.5,134.369,51.557,165.274,174.367,48.378,165.909,10.534,123.473Z" transform="translate(47.381 65.495)" fill="none" stroke="#e8383c" stroke-miterlimit="10" stroke-width="1.5"/>
      <path id="Path_28" data-name="Path 28" d="M13.028,147.723c-33.1-37.985,4.3-49.073,29.913-55.027,26.833-6.239,44.209-29.619,49.487-49.536,18.63-70.276,50.035-48.418,67.295,20.193C197.134,212,57.116,197.3,13.028,147.723Z" transform="translate(31.593 43.679)" fill="none" stroke="#e8383c" stroke-miterlimit="10" stroke-width="1.5"/>
      <path id="Path_29" data-name="Path 29" d="M15.527,171.992c-38.884-44.2,3.932-56.679,33.858-63.636,31.351-7.29,52.266-35.377,58.434-58.647C129.587-32.4,164.917-5,185.082,75.169,229,249.661,65.862,228.711,15.527,171.992Z" transform="translate(15.798 21.845)" fill="none" stroke="#e8383c" stroke-miterlimit="10" stroke-width="1.5"/>
      <path id="Path_30" data-name="Path 30" d="M18.031,196.271c-44.67-50.419,3.563-64.283,37.8-72.243,35.871-8.34,60.323-41.133,67.381-67.759,24.9-93.946,64.16-61,87.232,30.725C260.872,287.327,74.61,260.131,18.031,196.271Z" transform="translate(0 0)" fill="none" stroke="#e8383c" stroke-miterlimit="10" stroke-width="1.5"/>
    </g>
    <g id="Group_8" data-name="Group 8" transform="translate(598.235 253.563) rotate(106)">
      <path id="Path_31" data-name="Path 31" d="M81.039,192.268c21.84-30.951,48.144-17.166,75.906-.363s56.982,36.624,84.658,17.742c13.629-9.3,4.35-24.936-5.391-51.209s-19.941-63.184-8.155-115.027C236,8.478,216.162-6.147,179.664,2.367,140.932,11.4,107.836,29.987,75.525,47.7,7.838,84.8-7.238,144.263,2.835,182.79S48.13,238.905,81.039,192.268Z" transform="translate(0 0)" fill="none" stroke="#e8383c" stroke-miterlimit="10" stroke-width="1.5"/>
      <path id="Path_32" data-name="Path 32" d="M4.788,160.263c10.852,28.447,35.4,43.82,60.844,15.332a101.645,101.645,0,0,0,6.543-8.189c18.323-25.549,40.332-14.612,64.6.15,22.209,13.442,51.41,32.87,74.864,15.852,11.611-8.468,3.744-22.094-4.6-44.7q-.889-2.413-1.781-4.962c-7.82-22.474-14.894-53.1-5.466-95.132C206.871,7.357,189.764-5.6,156.909,2.228c-34.267,8.139-63.492,24.659-92.082,40.794A174.34,174.34,0,0,0,44.844,56.1C1.038,89.376-6.743,130.037,4.788,160.263Z" transform="translate(13.565 11.902)" fill="none" stroke="#e8383c" stroke-miterlimit="10" stroke-width="1.5"/>
      <path id="Path_33" data-name="Path 33" d="M7.463,137.741c11.554,21.322,30.8,34.366,51.147,11.5,1.812-2.042,3.627-4.264,5.425-6.693,14.877-20.093,32.52-12.056,53.291.664,16.658,10.081,45.837,29.118,65.072,13.964,9.592-7.64,3.138-19.254-3.812-38.191q-.753-2.055-1.509-4.226c-6.628-19.111-12.729-45.074-4.832-80.935,6.217-27.583-8.158-38.872-37.37-31.732-29.8,7.244-55.155,21.7-80.025,36.258A170.728,170.728,0,0,0,37.506,49.9C-1.714,79.655-7.238,110.612,7.463,137.741Z" transform="translate(26.408 23.801)" fill="none" stroke="#e8383c" stroke-miterlimit="10" stroke-width="1.5"/>
      <path id="Path_34" data-name="Path 34" d="M11.028,115.222c11.168,14.447,26.194,24.914,41.449,7.666,1.437-1.634,2.881-3.358,4.307-5.2,11.379-14.674,24.708-9.5,41.984,1.177,11.1,6.721,40.264,25.365,55.278,12.075,7.575-6.81,2.533-16.413-3.021-31.681q-.616-1.7-1.237-3.49c-5.435-15.748-10.563-37.046-4.2-66.738C150.946,5.126,139.3-4.5,113.732,1.957,88.4,8.306,66.913,20.7,45.765,33.678A175.415,175.415,0,0,0,31.057,43.7C-3.577,69.939-7.69,91.009,11.028,115.222Z" transform="translate(38.361 35.695)" fill="none" stroke="#e8383c" stroke-miterlimit="10" stroke-width="1.5"/>
      <path id="Path_35" data-name="Path 35" d="M15.678,92.709c9.764,8.221,21.592,15.461,31.751,3.832,1.063-1.225,2.132-2.453,3.189-3.7,7.853-9.27,16.9-6.946,30.676,1.691,5.553,3.36,34.691,21.612,45.484,10.185,5.557-5.98,1.927-13.572-2.231-25.172q-.48-1.341-.965-2.754c-4.242-12.386-8.4-29.019-3.562-52.542C124.513,4.018,115.6-3.935,93.674,1.831,72.806,7.282,55.192,17.611,37.764,29.015c-4.172,2.71-8.184,5.554-12.071,8.494C-4.354,60.229-8.513,72.34,15.678,92.709Z" transform="translate(49.229 47.584)" fill="none" stroke="#e8383c" stroke-miterlimit="10" stroke-width="1.5"/>
      <path id="Path_36" data-name="Path 36" d="M95.567,19.479C99.2,2.921,93.014-3.364,74.732,1.715c-20.155,5.6-36.3,16.8-53.287,29.612-25.461,19.2-31.563,26.78,0,38.881,8.169,3.132,16.99,6.008,22.053,0,4.888-5.8,9.465-7.678,21.44,0,0,0,29.117,17.859,35.69,8.3,3.833-5.577.915-11.656-2.135-20.68S92.262,36.833,95.567,19.479Z" transform="translate(58.981 59.461)" fill="none" stroke="#e8383c" stroke-miterlimit="10" stroke-width="1.5"/>
    </g>
    <g id="Group_9" data-name="Group 9" transform="translate(832.806 330.004) rotate(106)">
      <path id="Path_37" data-name="Path 37" d="M85.211,33.071C120.88,99.914,196.451-8.6,246.692,35.736,271.434,57.568,202.1,93.2,212.639,199.009c3.55,35.647-17.95,47.7-53.109,34.726-37.313-13.769-67.85-36.313-97.715-57.894C-63.314,85.421,31.467-67.645,85.211,33.071Z" transform="translate(0 0)" fill="none" stroke="#e8383c" stroke-miterlimit="10" stroke-width="1.5"/>
      <path id="Path_38" data-name="Path 38" d="M71.5,24.933c9.91,15.08,22.7,18.429,35.892,18.092,12.434-.285,26.15-6.123,41.765-13.143,21.017-9.333,48.758-20.113,67.449-2.5,21.038,19.87-38.59,50.509-29.711,142.207,3.15,31.9-15.432,42.63-47.063,30.79-32.12-11.962-58.495-31.293-84.226-50.068C33.481,134.2,19.031,115.809,10.3,97.473-22.724,27.912,30.708-37.135,71.5,24.933Z" transform="translate(12.039 20.546)" fill="none" stroke="#e8383c" stroke-miterlimit="10" stroke-width="1.5"/>
      <path id="Path_39" data-name="Path 39" d="M58.088,16.877C67.6,27.705,79.519,29.7,90.478,31.129c10.362,1.348,21.723-2.393,36.642-9.194,15.762-7,44.344-18.612,59.7-2.825,17.335,17.907-32.591,43.552-25.368,121.141,2.749,28.141-12.915,37.56-41.016,26.853-26.926-10.155-49.141-26.273-70.738-42.241-18.2-13.409-30.589-28.656-38.714-43.936C-19.5,23.2,19.121-27.475,58.088,16.877Z" transform="translate(23.775 41.011)" fill="none" stroke="#e8383c" stroke-miterlimit="10" stroke-width="1.5"/>
      <path id="Path_40" data-name="Path 40" d="M45.248,9.032c9.15,6.582,20.165,7.253,28.887,10.413,8.294,3,17.294,1.335,31.52-5.243,10.507-4.666,39.932-17.111,51.946-3.153,13.631,15.944-26.594,36.6-21.026,100.074,2.349,24.388-10.376,32.432-34.97,22.917-21.713-8.4-39.786-21.254-57.25-34.417A125.292,125.292,0,0,1,12.237,64.593C-15.81,18.763,8.228-17.6,45.248,9.032Z" transform="translate(34.942 61.263)" fill="none" stroke="#e8383c" stroke-miterlimit="10" stroke-width="1.5"/>
      <path id="Path_41" data-name="Path 41" d="M33.337,3.238c8.833,2.3,18.894,1.694,25.385,6.574,6.222,4.678,12.867,5.063,26.4-1.292,5.254-2.333,35.52-15.611,44.2-3.479,9.927,13.98-20.6,29.639-16.684,79.008,1.949,20.634-7.862,27.369-28.923,18.98-16.524-6.581-30.432-16.234-43.761-26.59A134.513,134.513,0,0,1,14.421,50.309C-11.07,16.314-1.54-5.827,33.337,3.238Z" transform="translate(45.178 79.465)" fill="none" stroke="#e8383c" stroke-miterlimit="10" stroke-width="1.5"/>
      <path id="Path_42" data-name="Path 42" d="M90.559,61.707c1.549,16.881-5.366,22.35-22.877,15.044C48.378,68.7,33.75,55.585,18.478,40.76-4.4,18.548-9.52,10.273,23.3,2.18c8.494-2.1,17.6-3.855,21.882,2.734,4.132,6.361,8.441,8.792,21.276,2.659,0,0,31.107-14.112,36.443-3.807C109.124,15.783,88.3,26.448,90.559,61.707Z" transform="translate(53.542 92.932)" fill="none" stroke="#e8383c" stroke-miterlimit="10" stroke-width="1.5"/>
    </g>
    <g id="Group_10" data-name="Group 10" transform="translate(393.093 294.592) rotate(106)">
      <path id="Path_43" data-name="Path 43" d="M175.911,249.791c-29.128-37.007,7.587-45.4,43.7-58.557s71.622-31.1,40.086-87.193c-26.763-47.606-46.53-51.112-74-50.827s-62.651,4.362-120.239-28.08C26.65,3.273,2.808-19.272,0,27.236c-.124,43.079,48.713,114.113,58.349,158.9,20.188,93.814,71.522,137.61,106.838,144.011S219.8,305.551,175.911,249.791Z" transform="translate(0 0)" fill="none" stroke="#e8383c" stroke-miterlimit="10" stroke-width="1.5"/>
      <path id="Path_44" data-name="Path 44" d="M0,25.328c.825,39.581,43.739,101.73,53.3,142.515,18.918,82.482,58.166,121.868,91.543,120.326,29.578,3.4,48.743-20.357,12.56-66.6-23.819-30.394,7.78-39.713,38.438-53.467s60.374-31.937,32.791-80.06C211.1,57.43,195.787,49.263,177.74,46.95a119.156,119.156,0,0,0-15.821-.747c-23.11.118-52.06,2.572-96.232-19.929q-4.762-2.444-9.707-5.219C21.865,1.9,1.4-16.563,0,25.328Z" transform="translate(18.161 22.361)" fill="none" stroke="#e8383c" stroke-miterlimit="10" stroke-width="1.5"/>
      <path id="Path_45" data-name="Path 45" d="M0,23.478C1.774,59.56,38.767,112.826,48.246,149.614c17.651,71.149,44.81,106.126,76.247,96.642,23.841.392,42.876-16.123,14.4-52.845-18.512-23.781,7.972-34.032,33.175-48.376s49.127-32.779,25.5-72.928c-14.469-24.6-28.635-30.433-45.726-32.262a128.5,128.5,0,0,0-13.689-.6c-20.546-.03-46.038,1.3-83.242-17.686q-4.157-2.155-8.4-4.528C17.083.578-.008-13.8,0,23.478Z" transform="translate(36.322 44.663)" fill="none" stroke="#e8383c" stroke-miterlimit="10" stroke-width="1.5"/>
      <path id="Path_46" data-name="Path 46" d="M.1,21.716C2.824,54.3,33.895,98.683,43.293,131.472c16.383,59.816,31.456,90.384,60.953,72.957,18.1-2.613,37.007-11.889,16.236-39.093-13.2-17.167,8.163-28.35,27.913-43.285s37.879-33.621,18.2-65.8c-11.407-18.579-24.421-22.118-40.564-23.429-3.684-.3-7.511-.412-11.557-.442-17.98-.178-40.016.027-70.254-15.442Q40.67,15.073,37.133,13.1C12.4-.651-1.315-10.94.1,21.716Z" transform="translate(54.382 66.876)" fill="none" stroke="#e8383c" stroke-miterlimit="10" stroke-width="1.5"/>
      <path id="Path_47" data-name="Path 47" d="M.459,20.1C4.131,49.19,29.281,84.688,38.6,113.48c15.114,48.483,18.1,74.642,45.657,49.272,12.367-5.618,31.139-7.656,18.072-25.34-7.9-10.554,8.356-22.668,22.651-38.193s26.631-34.464,10.905-58.664c-8.345-12.562-20.2-13.861-35.4-14.6-3.01-.147-6.141-.227-9.425-.288-15.415-.327-33.994-1.245-57.265-13.2q-2.944-1.581-5.776-3.149C7.973-1.733-2.365-7.937.459,20.1Z" transform="translate(72.184 88.942)" fill="none" stroke="#e8383c" stroke-miterlimit="10" stroke-width="1.5"/>
      <path id="Path_48" data-name="Path 48" d="M23.773,8.255C5.331-1.944-3.4-6.833,1.219,18.749s23.85,52.205,33.091,77c13.846,37.15,4.743,58.9,30.362,25.587,6.63-8.623,25.271-3.423,19.91-11.587-2.589-3.941,8.548-16.986,17.389-33.1s15.383-35.3,3.611-51.531C100.3,18.567,89.6,19.4,75.34,19.347S43.275,18.352,23.773,8.255Z" transform="translate(89.584 110.746)" fill="none" stroke="#e8383c" stroke-miterlimit="10" stroke-width="1.5"/>
    </g>
    <g id="Group_12" data-name="Group 12" transform="translate(823.753 72.993) rotate(106)">
      <path id="Path_55" data-name="Path 55" d="M159.14,261.7c108.471,12.827,35.855-14.625,156.129-69.48,40.521-18.481,75.364-18.143,39.434-47.806-34.739-25.474-123.488-34.176-165.354-52.766C166.1,81.322,148.456,3.283,122.867.126,92.825-3.581,74.53,75.916,40.061,88.694,22.4,95.243.407,90.612.094,110.687-3.016,171.441,71.266,251.305,159.14,261.7Z" transform="translate(0 0)" fill="none" stroke="#e8383c" stroke-miterlimit="10" stroke-width="1.5"/>
      <path id="Path_56" data-name="Path 56" d="M136.587,224.609c93.1,11.009,30.773-12.552,134-59.633,34.778-15.862,64.683-15.572,33.846-41.03-29.816-21.864-105.988-29.333-141.92-45.289C142.562,69.8,127.417,2.818,105.454.108,79.67-3.074,63.967,65.157,34.384,76.124,19.222,81.745.349,77.77.081,95-2.588,147.143,61.166,215.69,136.587,224.609Z" transform="translate(26.511 17.789)" fill="none" stroke="#e8383c" stroke-miterlimit="10" stroke-width="1.5"/>
      <path id="Path_57" data-name="Path 57" d="M114.032,187.519c77.724,9.191,25.691-10.479,111.874-49.786,29.036-13.243,54-13,28.257-34.256-24.892-18.253-88.485-24.489-118.484-37.81C119.021,58.271,106.376,2.352,88.04.09,66.514-2.565,53.4,54.4,28.706,63.553,16.048,68.246.292,64.928.068,79.312-2.161,122.846,51.066,180.074,114.032,187.519Z" transform="translate(53.023 35.578)" fill="none" stroke="#e8383c" stroke-miterlimit="10" stroke-width="1.5"/>
      <path id="Path_58" data-name="Path 58" d="M91.478,150.431c62.352,7.373,20.611-8.407,89.748-39.939,23.292-10.624,43.321-10.429,22.668-27.48-19.969-14.643-70.985-19.646-95.051-30.332C95.481,46.745,85.337,1.887,70.628.072c-17.269-2.13-27.785,43.566-47.6,50.911C12.874,54.748.235,52.086.054,63.625-1.733,98.548,40.966,144.457,91.478,150.431Z" transform="translate(79.534 53.367)" fill="none" stroke="#e8383c" stroke-miterlimit="10" stroke-width="1.5"/>
      <path id="Path_59" data-name="Path 59" d="M68.924,113.341c46.979,5.556,15.529-6.333,67.62-30.091,17.55-8,32.64-7.858,17.078-20.7-15.046-11.034-53.483-14.8-71.615-22.854C71.938,35.221,64.3,1.422,53.214.054,40.2-1.551,32.279,32.879,17.351,38.413,9.7,41.249.177,39.244.041,47.939-1.306,74.251,30.865,108.841,68.924,113.341Z" transform="translate(105.518 72.798)" fill="none" stroke="#e8383c" stroke-miterlimit="10" stroke-width="1.5"/>
      <path id="Path_60" data-name="Path 60" d="M46.37,76.253c31.606,3.737,10.447-4.261,45.492-20.245,11.807-5.385,21.96-5.287,11.491-13.93C93.229,34.656,67.37,32.12,55.172,26.7,48.4,23.7,43.256.957,35.8.037,27.047-1.043,21.716,22.12,11.672,25.844,6.525,27.752.118,26.4.027,32.252-.879,49.954,20.765,73.225,46.37,76.253Z" transform="translate(131.98 90.742)" fill="none" stroke="#e8383c" stroke-miterlimit="10" stroke-width="1.5"/>
    </g>
  </g>
</svg>
