<svg xmlns="http://www.w3.org/2000/svg" width="33.393" height="25.972" viewBox="0 0 33.393 25.972">
  <path id="Icon_awesome-address-card" data-name="Icon awesome-address-card" d="M30.61,2.25H2.783A2.783,2.783,0,0,0,0,5.033V25.439a2.783,2.783,0,0,0,2.783,2.783H30.61a2.783,2.783,0,0,0,2.783-2.783V5.033A2.783,2.783,0,0,0,30.61,2.25ZM10.2,7.815a3.71,3.71,0,1,1-3.71,3.71A3.714,3.714,0,0,1,10.2,7.815ZM16.7,21.544a1.216,1.216,0,0,1-1.3,1.113H5.009a1.216,1.216,0,0,1-1.3-1.113V20.431a3.651,3.651,0,0,1,3.9-3.339H7.9a5.971,5.971,0,0,0,4.615,0h.29a3.651,3.651,0,0,1,3.9,3.339Zm12.986-3.061a.465.465,0,0,1-.464.464H20.87a.465.465,0,0,1-.464-.464v-.928a.465.465,0,0,1,.464-.464h8.348a.465.465,0,0,1,.464.464Zm0-3.71a.465.465,0,0,1-.464.464H20.87a.465.465,0,0,1-.464-.464v-.928a.465.465,0,0,1,.464-.464h8.348a.465.465,0,0,1,.464.464Zm0-3.71a.465.465,0,0,1-.464.464H20.87a.465.465,0,0,1-.464-.464v-.928a.465.465,0,0,1,.464-.464h8.348a.465.465,0,0,1,.464.464Z" transform="translate(0 -2.25)" fill="#fff"/>
</svg>
