<svg xmlns="http://www.w3.org/2000/svg" xmlns:xlink="http://www.w3.org/1999/xlink" width="34" height="34" viewBox="0 0 34 34">
  <defs>
    <linearGradient id="linear-gradient" x1="0.87" y1="0.112" x2="0.341" y2="1" gradientUnits="objectBoundingBox">
      <stop offset="0" stop-color="#5755ca"/>
      <stop offset="0.305" stop-color="#c82f9a"/>
      <stop offset="0.744" stop-color="#d94646"/>
      <stop offset="1" stop-color="#fed77b"/>
    </linearGradient>
  </defs>
  <g id="Group_35" data-name="Group 35" transform="translate(-80 -578)">
    <g id="Group_23" data-name="Group 23" transform="translate(80.087 579.077)">
      <circle id="Ellipse_2" data-name="Ellipse 2" cx="17" cy="17" r="17" transform="translate(-0.087 -1.077)" fill="url(#linear-gradient)"/>
    </g>
    <path id="Icon_awesome-instagram" data-name="Icon awesome-instagram" d="M10.393,7.3a5.33,5.33,0,1,0,5.33,5.33A5.321,5.321,0,0,0,10.393,7.3Zm0,8.795a3.465,3.465,0,1,1,3.465-3.465A3.471,3.471,0,0,1,10.393,16.1Zm6.791-9.013a1.243,1.243,0,1,1-1.243-1.243A1.24,1.24,0,0,1,17.184,7.084Zm3.53,1.262A6.152,6.152,0,0,0,19.035,3.99a6.192,6.192,0,0,0-4.356-1.679c-1.716-.1-6.86-.1-8.577,0A6.183,6.183,0,0,0,1.747,3.985,6.172,6.172,0,0,0,.068,8.341c-.1,1.716-.1,6.86,0,8.577a6.152,6.152,0,0,0,1.679,4.356A6.2,6.2,0,0,0,6.1,22.952c1.716.1,6.86.1,8.577,0a6.152,6.152,0,0,0,4.356-1.679,6.192,6.192,0,0,0,1.679-4.356c.1-1.716.1-6.856,0-8.572ZM18.5,18.759a3.508,3.508,0,0,1-1.976,1.976c-1.368.543-4.615.417-6.127.417s-4.764.121-6.127-.417A3.508,3.508,0,0,1,2.29,18.759c-.543-1.368-.417-4.615-.417-6.127S1.752,7.868,2.29,6.5A3.508,3.508,0,0,1,4.266,4.528c1.368-.543,4.615-.417,6.127-.417s4.764-.121,6.127.417A3.508,3.508,0,0,1,18.5,6.5c.543,1.368.417,4.615.417,6.127S19.039,17.4,18.5,18.759Z" transform="translate(86.391 582.173)" fill="#fff"/>
  </g>
</svg>
