<svg xmlns="http://www.w3.org/2000/svg" width="33.525" height="33.608" viewBox="0 0 33.525 33.608">
  <path id="Icon_simple-pinterest" data-name="Icon simple-pinterest" d="M16.831,0a16.785,16.785,0,0,0-6.119,32.416,16.137,16.137,0,0,1,.057-4.816c.307-1.312,1.969-8.342,1.969-8.342a6.074,6.074,0,0,1-.5-2.494c0-2.329,1.354-4.076,3.036-4.076A2.11,2.11,0,0,1,17.4,15.052c0,1.441-.914,3.595-1.389,5.59a2.435,2.435,0,0,0,2.486,3.032c2.98,0,5.276-3.144,5.276-7.684a6.626,6.626,0,0,0-7.013-6.818,7.264,7.264,0,0,0-7.574,7.28,6.536,6.536,0,0,0,1.245,3.838.512.512,0,0,1,.119.483c-.126.525-.41,1.679-.468,1.909-.074.315-.241.379-.562.231-2.093-.966-3.407-4.03-3.407-6.506C6.11,11.12,9.958,6.252,17.2,6.252c5.823,0,10.351,4.155,10.351,9.694,0,5.79-3.651,10.449-8.728,10.449a4.534,4.534,0,0,1-3.862-1.931l-1.049,3.988a18.287,18.287,0,0,1-2.1,4.405A16.787,16.787,0,1,0,16.786.036Z" transform="translate(-0.043)" fill="#ed343c"/>
</svg>
