<svg xmlns="http://www.w3.org/2000/svg" width="34" height="34" viewBox="0 0 34 34">
  <g id="Group_36" data-name="Group 36" transform="translate(-80 -636)">
    <g id="Group_24" data-name="Group 24" transform="translate(80.087 637.077)">
      <circle id="Ellipse_2" data-name="Ellipse 2" cx="17" cy="17" r="17" transform="translate(-0.087 -1.077)" fill="#ed343c"/>
    </g>
    <path id="Icon_awesome-youtube" data-name="Icon awesome-youtube" d="M21.091,6.752a2.572,2.572,0,0,0-1.81-1.821c-1.6-.43-8-.43-8-.43s-6.4,0-8,.43a2.572,2.572,0,0,0-1.81,1.821,26.981,26.981,0,0,0-.428,4.959,26.981,26.981,0,0,0,.428,4.959,2.534,2.534,0,0,0,1.81,1.792c1.6.43,8,.43,8,.43s6.4,0,8-.43a2.534,2.534,0,0,0,1.81-1.792,26.98,26.98,0,0,0,.428-4.959,26.981,26.981,0,0,0-.428-4.959Zm-11.9,8V8.667l5.35,3.044-5.35,3.043Z" transform="translate(85.959 641.108)" fill="#fff"/>
  </g>
</svg>
